HIERARCHY
ROOT root
{
	OFFSET 0.000000 0.000642 0.045086
	CHANNELS 6 Xposition Yposition Zposition Xrotation Yrotation Zrotation
	JOINT pelvis
	{
		OFFSET -0.002936 0.026773 0.927670
		CHANNELS 6 Xposition Yposition Zposition Xrotation Yrotation Zrotation
		JOINT thigh_R
		{
			OFFSET -0.109487 -0.026910 -0.119863
			CHANNELS 6 Xposition Yposition Zposition Xrotation Yrotation Zrotation
			JOINT calf_R
			{
				OFFSET -0.031978 -0.023263 -0.393771
				CHANNELS 3 Xrotation Yrotation Zrotation
				JOINT foot_R
				{
					OFFSET -0.052496 0.000902 -0.370102
					CHANNELS 3 Xrotation Yrotation Zrotation
					JOINT toes_R
					{
						OFFSET -0.009320 -0.126011 -0.069821
						CHANNELS 6 Xposition Yposition Zposition Xrotation Yrotation Zrotation
						End Site
						{
							OFFSET -0.004473 -0.046724 -0.003049
						}
					}
				}
				JOINT calf_twist_R
				{
					OFFSET 0.000000 0.000000 0.000000
					CHANNELS 6 Xposition Yposition Zposition Xrotation Yrotation Zrotation
					End Site
					{
						OFFSET -0.038816 0.005263 -0.254563
					}
				}
			}
			JOINT thigh_twist_R
			{
				OFFSET 0.000000 -0.000000 0.000000
				CHANNELS 6 Xposition Yposition Zposition Xrotation Yrotation Zrotation
				End Site
				{
					OFFSET -0.013447 -0.026672 -0.173442
				}
			}
		}
		JOINT thigh_L
		{
			OFFSET 0.115359 -0.026910 -0.119863
			CHANNELS 6 Xposition Yposition Zposition Xrotation Yrotation Zrotation
			JOINT calf_L
			{
				OFFSET 0.031978 -0.023263 -0.393771
				CHANNELS 3 Xrotation Yrotation Zrotation
				JOINT foot_L
				{
					OFFSET 0.052496 0.000902 -0.370102
					CHANNELS 3 Xrotation Yrotation Zrotation
					JOINT toes_L
					{
						OFFSET 0.009320 -0.126011 -0.069821
						CHANNELS 3 Xrotation Yrotation Zrotation
						End Site
						{
							OFFSET 0.004473 -0.046724 -0.003049
						}
					}
				}
				JOINT calf_twist_L
				{
					OFFSET 0.000000 0.000000 0.000000
					CHANNELS 6 Xposition Yposition Zposition Xrotation Yrotation Zrotation
					End Site
					{
						OFFSET 0.038816 0.005263 -0.254563
					}
				}
			}
			JOINT thigh_twist_L
			{
				OFFSET 0.000000 0.000000 0.000000
				CHANNELS 6 Xposition Yposition Zposition Xrotation Yrotation Zrotation
				End Site
				{
					OFFSET 0.013447 -0.026672 -0.173442
				}
			}
		}
		JOINT spine01
		{
			OFFSET -0.000052 -0.001333 0.006057
			CHANNELS 3 Xrotation Yrotation Zrotation
			JOINT spine02
			{
				OFFSET 0.002988 -0.035069 0.061561
				CHANNELS 3 Xrotation Yrotation Zrotation
				JOINT spine03
				{
					OFFSET 0.000000 0.008649 0.117635
					CHANNELS 3 Xrotation Yrotation Zrotation
					JOINT clavicle_L
					{
						OFFSET 0.031960 -0.002455 0.159580
						CHANNELS 6 Xposition Yposition Zposition Xrotation Yrotation Zrotation
						JOINT upperarm_L
						{
							OFFSET 0.106613 -0.013377 -0.022582
							CHANNELS 6 Xposition Yposition Zposition Xrotation Yrotation Zrotation
							JOINT lowerarm_L
							{
								OFFSET 0.233664 0.021966 -0.134813
								CHANNELS 3 Xrotation Yrotation Zrotation
								JOINT hand_L
								{
									OFFSET 0.202817 -0.038212 -0.103702
									CHANNELS 3 Xrotation Yrotation Zrotation
									JOINT thumb01_L
									{
										OFFSET 0.008269 -0.017364 -0.009129
										CHANNELS 6 Xposition Yposition Zposition Xrotation Yrotation Zrotation
										JOINT thumb02_L
										{
											OFFSET 0.007103 -0.025549 -0.027526
											CHANNELS 3 Xrotation Yrotation Zrotation
											JOINT thumb03_L
											{
												OFFSET 0.011035 -0.026258 -0.014218
												CHANNELS 3 Xrotation Yrotation Zrotation
												End Site
												{
													OFFSET 0.008927 -0.014147 -0.017737
												}
											}
										}
									}
									JOINT index00_L
									{
										OFFSET 0.015790 -0.019369 -0.010869
										CHANNELS 6 Xposition Yposition Zposition Xrotation Yrotation Zrotation
										JOINT index01_L
										{
											OFFSET 0.047864 -0.007217 -0.023292
											CHANNELS 3 Xrotation Yrotation Zrotation
											JOINT index02_L
											{
												OFFSET 0.026189 -0.000355 -0.020650
												CHANNELS 3 Xrotation Yrotation Zrotation
												JOINT index03_L
												{
													OFFSET 0.017813 0.001193 -0.013583
													CHANNELS 3 Xrotation Yrotation Zrotation
													End Site
													{
														OFFSET 0.013377 0.001373 -0.016250
													}
												}
											}
										}
									}
									JOINT middle00_L
									{
										OFFSET 0.016276 -0.006169 -0.012863
										CHANNELS 6 Xposition Yposition Zposition Xrotation Yrotation Zrotation
										JOINT middle01_L
										{
											OFFSET 0.049067 -0.003947 -0.017410
											CHANNELS 3 Xrotation Yrotation Zrotation
											JOINT middle02_L
											{
												OFFSET 0.029087 0.000312 -0.026941
												CHANNELS 3 Xrotation Yrotation Zrotation
												JOINT middle03_L
												{
													OFFSET 0.019190 0.000267 -0.015543
													CHANNELS 3 Xrotation Yrotation Zrotation
													End Site
													{
														OFFSET 0.014683 0.000017 -0.017510
													}
												}
											}
										}
									}
									JOINT ring00_L
									{
										OFFSET 0.017106 0.003470 -0.011997
										CHANNELS 6 Xposition Yposition Zposition Xrotation Yrotation Zrotation
										JOINT ring01_L
										{
											OFFSET 0.044984 0.002116 -0.016733
											CHANNELS 3 Xrotation Yrotation Zrotation
											JOINT ring02_L
											{
												OFFSET 0.028856 0.000400 -0.026983
												CHANNELS 3 Xrotation Yrotation Zrotation
												JOINT ring03_L
												{
													OFFSET 0.017620 0.000363 -0.013833
													CHANNELS 3 Xrotation Yrotation Zrotation
													End Site
													{
														OFFSET 0.015507 -0.000807 -0.015547
													}
												}
											}
										}
									}
									JOINT pinky00_L
									{
										OFFSET 0.014366 0.020048 -0.015014
										CHANNELS 6 Xposition Yposition Zposition Xrotation Yrotation Zrotation
										JOINT pinky01_L
										{
											OFFSET 0.041296 0.001442 -0.016227
											CHANNELS 3 Xrotation Yrotation Zrotation
											JOINT pinky02_L
											{
												OFFSET 0.024951 -0.000301 -0.020450
												CHANNELS 3 Xrotation Yrotation Zrotation
												JOINT pinky03_L
												{
													OFFSET 0.013007 -0.001157 -0.010280
													CHANNELS 3 Xrotation Yrotation Zrotation
													End Site
													{
														OFFSET 0.009963 -0.001160 -0.011403
													}
												}
											}
										}
									}
								}
								JOINT lowerarm_twist_L
								{
									OFFSET 0.000000 -0.000000 0.000000
									CHANNELS 6 Xposition Yposition Zposition Xrotation Yrotation Zrotation
									End Site
									{
										OFFSET 0.113147 -0.023106 -0.058600
									}
								}
							}
							JOINT upperarm_twist_L
							{
								OFFSET 0.000000 0.000000 0.000000
								CHANNELS 6 Xposition Yposition Zposition Xrotation Yrotation Zrotation
								End Site
								{
									OFFSET 0.131225 0.003005 -0.082365
								}
							}
						}
					}
					JOINT clavicle_R
					{
						OFFSET -0.031960 -0.002455 0.159580
						CHANNELS 6 Xposition Yposition Zposition Xrotation Yrotation Zrotation
						JOINT upperarm_R
						{
							OFFSET -0.106613 -0.013377 -0.022582
							CHANNELS 6 Xposition Yposition Zposition Xrotation Yrotation Zrotation
							JOINT lowerarm_R
							{
								OFFSET -0.233664 0.021966 -0.134813
								CHANNELS 3 Xrotation Yrotation Zrotation
								JOINT hand_R
								{
									OFFSET -0.202817 -0.038212 -0.103702
									CHANNELS 3 Xrotation Yrotation Zrotation
									JOINT thumb01_R
									{
										OFFSET -0.008269 -0.017364 -0.009129
										CHANNELS 6 Xposition Yposition Zposition Xrotation Yrotation Zrotation
										JOINT thumb02_R
										{
											OFFSET -0.007103 -0.025549 -0.027526
											CHANNELS 3 Xrotation Yrotation Zrotation
											JOINT thumb03_R
											{
												OFFSET -0.011035 -0.026258 -0.014218
												CHANNELS 3 Xrotation Yrotation Zrotation
												End Site
												{
													OFFSET -0.008927 -0.014147 -0.017737
												}
											}
										}
									}
									JOINT index00_R
									{
										OFFSET -0.015790 -0.019369 -0.010869
										CHANNELS 6 Xposition Yposition Zposition Xrotation Yrotation Zrotation
										JOINT index01_R
										{
											OFFSET -0.047864 -0.007217 -0.023292
											CHANNELS 3 Xrotation Yrotation Zrotation
											JOINT index02_R
											{
												OFFSET -0.026189 -0.000355 -0.020650
												CHANNELS 3 Xrotation Yrotation Zrotation
												JOINT index03_R
												{
													OFFSET -0.017813 0.001193 -0.013583
													CHANNELS 3 Xrotation Yrotation Zrotation
													End Site
													{
														OFFSET -0.013377 0.001373 -0.016250
													}
												}
											}
										}
									}
									JOINT middle00_R
									{
										OFFSET -0.016276 -0.006169 -0.012863
										CHANNELS 6 Xposition Yposition Zposition Xrotation Yrotation Zrotation
										JOINT middle01_R
										{
											OFFSET -0.049067 -0.003947 -0.017410
											CHANNELS 3 Xrotation Yrotation Zrotation
											JOINT middle02_R
											{
												OFFSET -0.029087 0.000312 -0.026941
												CHANNELS 3 Xrotation Yrotation Zrotation
												JOINT middle03_R
												{
													OFFSET -0.019190 0.000267 -0.015543
													CHANNELS 3 Xrotation Yrotation Zrotation
													End Site
													{
														OFFSET -0.014683 0.000017 -0.017510
													}
												}
											}
										}
									}
									JOINT ring00_R
									{
										OFFSET -0.017106 0.003470 -0.011997
										CHANNELS 6 Xposition Yposition Zposition Xrotation Yrotation Zrotation
										JOINT ring01_R
										{
											OFFSET -0.044984 0.002116 -0.016733
											CHANNELS 3 Xrotation Yrotation Zrotation
											JOINT ring02_R
											{
												OFFSET -0.028856 0.000400 -0.026983
												CHANNELS 3 Xrotation Yrotation Zrotation
												JOINT ring03_R
												{
													OFFSET -0.017620 0.000363 -0.013833
													CHANNELS 3 Xrotation Yrotation Zrotation
													End Site
													{
														OFFSET -0.015507 -0.000807 -0.015547
													}
												}
											}
										}
									}
									JOINT pinky00_R
									{
										OFFSET -0.014366 0.020048 -0.015014
										CHANNELS 6 Xposition Yposition Zposition Xrotation Yrotation Zrotation
										JOINT pinky01_R
										{
											OFFSET -0.041296 0.001442 -0.016227
											CHANNELS 3 Xrotation Yrotation Zrotation
											JOINT pinky02_R
											{
												OFFSET -0.024951 -0.000301 -0.020450
												CHANNELS 3 Xrotation Yrotation Zrotation
												JOINT pinky03_R
												{
													OFFSET -0.013007 -0.001157 -0.010280
													CHANNELS 3 Xrotation Yrotation Zrotation
													End Site
													{
														OFFSET -0.009963 -0.001160 -0.011403
													}
												}
											}
										}
									}
								}
								JOINT lowerarm_twist_R
								{
									OFFSET 0.000000 0.000000 0.000000
									CHANNELS 6 Xposition Yposition Zposition Xrotation Yrotation Zrotation
									End Site
									{
										OFFSET -0.113147 -0.023106 -0.058600
									}
								}
							}
							JOINT upperarm_twist_R
							{
								OFFSET 0.000000 0.000000 0.000000
								CHANNELS 6 Xposition Yposition Zposition Xrotation Yrotation Zrotation
								End Site
								{
									OFFSET -0.131225 0.003005 -0.082365
								}
							}
						}
					}
					JOINT neck
					{
						OFFSET -0.000000 -0.002726 0.194733
						CHANNELS 6 Xposition Yposition Zposition Xrotation Yrotation Zrotation
						JOINT head
						{
							OFFSET 0.000000 -0.047407 0.104388
							CHANNELS 3 Xrotation Yrotation Zrotation
							End Site
							{
								OFFSET -0.000000 -0.000839 0.155358
							}
						}
					}
					JOINT breast_L
					{
						OFFSET 0.075423 -0.033073 0.045626
						CHANNELS 6 Xposition Yposition Zposition Xrotation Yrotation Zrotation
						End Site
						{
							OFFSET 0.027052 -0.131754 -0.030994
						}
					}
					JOINT breast_R
					{
						OFFSET -0.075423 -0.033073 0.045626
						CHANNELS 6 Xposition Yposition Zposition Xrotation Yrotation Zrotation
						End Site
						{
							OFFSET -0.027052 -0.131754 -0.030994
						}
					}
				}
			}
		}
	}
}
MOTION
Frames: 4
Frame Time: 0.041667
0.000000 0.000642 0.045086 0.000000 0.000000 0.000000 0.790003 -2.248293 0.555740 -39.761632 0.734998 366.100462 -0.109487 -0.026909 -0.119863 -5.074875 -12.822206 -3.770548 40.824590 -3.657838 -4.164239 -37.983836 -6.383330 -8.338543 -0.009320 -0.126011 -0.069821 17.309161 -1.508525 4.394494 0.000000 0.000000 -0.000000 0.000001 -0.000002 0.000000 0.000000 0.000000 0.000000 0.000006 0.000002 -0.000001 0.115359 -0.026910 -0.119864 -3.597755 -1.756497 4.030671 40.286594 3.985377 3.995520 -37.057871 21.184253 -9.370602 18.225824 1.630750 -4.182189 0.000000 -0.000000 -0.000000 -0.000001 -0.000002 -0.000001 -0.000000 0.000000 -0.000000 0.000001 -0.000002 0.000000 -6.279567 -0.834967 -0.179606 4.518146 -1.491130 -0.646420 -4.327503 -2.513761 -0.453224 0.031960 -0.002455 0.159581 -0.000002 -0.000008 -0.000003 0.106614 -0.013378 -0.022582 67.620717 45.007713 -59.796278 -42.836641 -1.817424 -67.609891 23.394687 -13.434976 -17.666155 0.008269 -0.017364 -0.009130 0.000927 -0.000071 -0.000375 -0.000297 -0.000110 0.000233 8.885376 21.993230 25.988453 0.015791 -0.019370 -0.010870 -0.000002 -0.000023 0.000001 -0.000180 0.014389 -0.000342 -2.558759 7.727809 -5.803091 1.371941 -6.040490 -0.749968 0.016275 -0.006169 -0.012863 0.000006 0.000011 0.000001 -0.000644 0.015498 -0.000431 -0.000110 0.033336 0.000382 0.000286 0.071442 0.000419 0.017107 0.003471 -0.011997 -0.000001 -0.000021 -0.000001 -0.000005 0.017523 0.000235 -0.000663 0.031908 0.000154 0.000753 0.091896 -0.004035 0.014367 0.020048 -0.015014 0.000002 -0.000004 0.000002 0.000251 0.017959 -0.000006 0.001920 0.039137 -0.002046 0.005973 0.104264 -0.005366 0.000000 -0.000000 -0.000001 -0.000020 0.000674 0.000308 0.000000 0.000000 0.000000 -0.000004 0.001376 -0.000062 -0.031960 -0.002455 0.159580 -0.000002 0.000016 -0.000007 -0.106614 -0.013377 -0.022581 61.432572 -37.192897 52.318566 -42.846866 1.417885 67.909333 14.162255 9.969608 13.300334 -0.008269 -0.017364 -0.009130 0.001372 -0.000757 0.000195 -0.000074 -0.000413 0.000096 15.335778 -1.262413 304.505488 -0.015791 -0.019369 -0.010870 -0.000007 0.000014 0.000001 -0.000144 -0.013012 0.000294 14.884796 -343.398580 -15.321596 1.359231 6.082377 0.666010 -0.016274 -0.006169 -0.012862 -0.000001 0.000004 0.000001 -0.000568 -0.013605 0.000381 -0.001181 -0.011793 0.000787 0.000541 -0.020177 -0.000669 -0.017107 0.003471 -0.011997 -0.000000 0.000002 -0.000001 -0.000719 -0.016758 0.000435 -0.000642 -0.015893 0.000171 -0.000132 -0.042074 0.002315 -0.014367 0.020048 -0.015014 -0.000002 0.000006 -0.000002 -0.000991 -0.017896 0.001029 0.000527 -0.022085 0.001604 0.000326 -0.056881 0.006362 -0.000000 -0.000000 -0.000000 0.000004 -0.000004 0.000007 0.000001 0.000000 0.000001 -0.000006 -0.000076 0.000001 0.000000 -0.002726 0.194733 -18.050640 17.509176 -14.664770 -8.092125 -5.116271 -5.782153 0.075423 -0.033073 0.045626 0.000422 0.000108 -0.000167 -0.075424 -0.033073 0.045626 0.000451 -0.000112 0.000180 
0.000000 0.000642 0.045086 0.000000 0.000000 0.000000 0.781704 -2.274849 0.576554 -38.254831 -0.153248 369.506622 -0.109487 -0.026909 -0.119863 -4.230583 -12.838144 -2.601084 40.116638 -3.632466 -4.108953 -39.957976 -9.594342 -3.760842 -0.009320 -0.126011 -0.069821 36.945480 -2.566809 -2.388711 0.000000 0.000000 -0.000000 0.000001 -0.000000 0.000000 0.000000 0.000000 0.000000 0.000004 0.000004 -0.000001 0.115359 -0.026910 -0.119863 -3.863335 -1.855909 3.297691 39.730544 3.960718 3.955868 -34.743017 22.182048 -11.418514 17.760041 1.633057 -4.353514 0.000000 -0.000000 -0.000000 -0.000001 -0.000002 -0.000001 -0.000000 0.000000 -0.000000 0.000007 -0.000001 -0.000001 -8.207262 -0.496252 -1.037492 4.909477 -0.834103 -2.012460 -2.876893 -1.850733 -1.061441 0.031960 -0.002455 0.159581 -0.000004 -0.000007 -0.000005 0.106614 -0.013377 -0.022582 71.468886 47.953443 -59.192072 -44.545865 -0.589471 -70.653239 25.843598 -14.475862 -18.744317 0.008269 -0.017363 -0.009130 0.000924 -0.000071 -0.000375 -0.000303 -0.000112 0.000232 9.194475 23.175412 23.576652 0.015791 -0.019369 -0.010870 -0.000007 -0.000023 0.000001 -0.000178 0.014393 -0.000342 -3.100075 9.441846 -7.236235 1.371941 -6.040487 -0.749969 0.016275 -0.006169 -0.012863 0.000001 0.000014 0.000001 -0.000648 0.015496 -0.000431 -0.000115 0.033335 0.000382 0.000284 0.071442 0.000418 0.017107 0.003471 -0.011996 -0.000005 -0.000014 -0.000003 -0.000003 0.017525 0.000233 -0.000669 0.031914 0.000158 0.000758 0.091898 -0.004036 0.014367 0.020048 -0.015015 -0.000005 0.000003 0.000001 0.000246 0.017962 -0.000008 0.001921 0.039138 -0.002051 0.005974 0.104262 -0.005370 -0.000000 -0.000000 -0.000000 -0.000018 0.000674 0.000307 0.000000 0.000000 0.000000 -0.000004 0.001368 -0.000064 -0.031960 -0.002455 0.159580 -0.000000 0.000015 -0.000009 -0.106613 -0.013377 -0.022582 65.872462 -35.415412 52.969558 -44.372064 0.304582 70.643643 14.296880 10.014691 13.367018 -0.008269 -0.017364 -0.009130 0.001369 -0.000758 0.000195 -0.000079 -0.000406 0.000097 16.044809 -1.100514 303.300615 -0.015791 -0.019369 -0.010870 -0.000008 0.000014 0.000005 -0.000145 -0.013007 0.000297 16.009521 -343.230530 -16.526966 1.359233 6.082380 0.666010 -0.016274 -0.006169 -0.012862 -0.000001 0.000010 0.000001 -0.000565 -0.013608 0.000375 -0.001184 -0.011789 0.000786 0.000542 -0.020177 -0.000670 -0.017107 0.003471 -0.011996 -0.000001 0.000007 0.000004 -0.000715 -0.016763 0.000435 -0.000646 -0.015883 0.000173 -0.000130 -0.042074 0.002317 -0.014367 0.020048 -0.015014 -0.000002 0.000004 -0.000002 -0.000991 -0.017899 0.001030 0.000524 -0.022083 0.001602 0.000330 -0.056885 0.006358 -0.000001 -0.000000 -0.000000 0.000003 -0.000004 0.000001 0.000000 -0.000000 0.000000 -0.000005 -0.000075 -0.000005 0.000000 -0.002726 0.194733 -19.004202 19.352771 -14.634964 -9.060901 -5.499344 -6.463032 0.075423 -0.033073 0.045626 0.000424 0.000106 -0.000166 -0.075423 -0.033073 0.045627 0.000451 -0.000112 0.000180 
0.000000 0.000642 0.045086 0.000000 0.000000 0.000000 0.774901 -2.301512 0.591973 -37.638389 -0.809329 371.499153 -0.109487 -0.026910 -0.119863 -1.725492 -13.042661 -1.037660 39.001746 -3.592423 -4.021625 -38.522984 -15.501640 3.562565 -0.009320 -0.126011 -0.069821 52.683674 -5.053942 -7.371201 0.000000 0.000000 -0.000000 0.000001 -0.000002 0.000001 -0.000000 -0.000000 0.000001 0.000002 0.000004 -0.000001 0.115359 -0.026911 -0.119864 -2.879402 -2.351714 3.451197 38.848586 3.923679 3.891846 -33.484405 23.380200 -13.422028 19.229902 1.630641 -3.812904 0.000000 -0.000000 -0.000000 -0.000001 -0.000001 -0.000002 -0.000000 -0.000000 -0.000000 -0.000002 -0.000000 -0.000002 -10.665251 1.307857 -0.221992 6.655232 -1.410114 -1.999673 0.400256 -3.391508 -0.844534 0.031960 -0.002455 0.159581 -0.000004 -0.000007 -0.000004 0.106614 -0.013377 -0.022582 74.489811 46.068963 -62.326726 -46.050703 0.611823 -73.404945 26.895863 -14.937844 -19.196018 0.008268 -0.017363 -0.009129 0.000925 -0.000069 -0.000374 -0.000299 -0.000110 0.000228 9.869766 23.935071 24.200188 0.015791 -0.019369 -0.010870 -0.000002 -0.000019 0.000001 -0.000177 0.014393 -0.000339 -2.467849 10.139585 -6.094980 1.371938 -6.040486 -0.749972 0.016275 -0.006169 -0.012862 0.000008 0.000013 -0.000000 -0.000649 0.015501 -0.000431 -0.000116 0.033335 0.000380 0.000284 0.071437 0.000420 0.017107 0.003471 -0.011996 -0.000003 -0.000016 0.000001 -0.000007 0.017523 0.000231 -0.000668 0.031909 0.000154 0.000754 0.091900 -0.004032 0.014367 0.020048 -0.015014 0.000003 0.000001 -0.000001 0.000248 0.017957 -0.000008 0.001920 0.039138 -0.002048 0.005973 0.104258 -0.005367 -0.000000 0.000000 -0.000000 -0.000022 0.000676 0.000308 0.000000 -0.000000 0.000000 -0.000004 0.001364 -0.000068 -0.031960 -0.002455 0.159580 -0.000002 0.000015 -0.000011 -0.106613 -0.013377 -0.022581 66.199901 -33.233457 50.848962 -45.451921 -0.553905 72.622342 12.754429 9.508234 12.598052 -0.008269 -0.017364 -0.009130 0.001371 -0.000757 0.000199 -0.000073 -0.000406 0.000100 17.128345 -0.067448 301.531979 -0.015791 -0.019369 -0.010870 -0.000006 0.000011 0.000003 -0.000143 -0.013012 0.000297 17.814433 -342.205373 -18.127208 1.359234 6.082380 0.666013 -0.016274 -0.006169 -0.012862 -0.000002 0.000003 0.000002 -0.000562 -0.013605 0.000377 -0.001183 -0.011797 0.000794 0.000545 -0.020176 -0.000670 -0.017107 0.003471 -0.011996 -0.000002 0.000002 0.000000 -0.000716 -0.016763 0.000432 -0.000650 -0.015888 0.000170 -0.000120 -0.042077 0.002314 -0.014367 0.020048 -0.015014 0.000002 0.000000 0.000003 -0.000990 -0.017899 0.001031 0.000532 -0.022084 0.001599 0.000326 -0.056879 0.006361 -0.000001 -0.000000 -0.000000 0.000003 -0.000004 0.000003 0.000001 -0.000000 0.000000 -0.000003 -0.000078 0.000001 0.000000 -0.002727 0.194733 -21.153958 23.363818 -16.511053 -9.879619 -5.621228 -7.178628 0.075423 -0.033073 0.045626 0.000424 0.000107 -0.000167 -0.075424 -0.033073 0.045627 0.000451 -0.000112 0.000182 
0.000000 0.000642 0.045086 0.000000 0.000000 0.000000 0.771388 -2.326714 0.606602 -35.812533 -1.381362 372.777901 -0.109487 -0.026909 -0.119863 -0.688230 -12.272349 -0.945807 37.462464 -3.540932 -3.899504 -35.304664 -18.784026 8.360488 -0.009320 -0.126012 -0.069821 57.082517 -5.990443 -8.636669 0.000000 0.000000 -0.000000 0.000001 -0.000000 0.000001 -0.000000 0.000000 0.000000 0.000003 0.000001 0.000001 0.115359 -0.026910 -0.119864 -2.420292 -1.959092 2.293740 37.582539 3.873364 3.798633 -32.851642 24.149626 -14.661404 18.424594 1.630161 -4.109115 0.000000 -0.000000 -0.000000 -0.000001 -0.000002 0.000002 -0.000000 0.000000 -0.000000 -0.000003 -0.000003 -0.000000 -10.177303 1.813488 -0.463412 4.622232 -0.639160 -2.834637 -1.987074 -2.930013 -1.320311 0.031960 -0.002455 0.159581 -0.000004 -0.000007 -0.000004 0.106614 -0.013377 -0.022582 81.313682 46.276929 -61.344456 -48.110070 2.460596 -77.305167 27.749358 -15.318897 -19.557086 0.008269 -0.017364 -0.009129 0.000926 -0.000066 -0.000378 -0.000298 -0.000112 0.000232 10.560739 25.139286 23.007327 0.015791 -0.019369 -0.010870 -0.000000 -0.000022 -0.000002 -0.000178 0.014389 -0.000343 -2.378784 11.668495 -6.269844 1.371941 -6.040481 -0.749965 0.016275 -0.006169 -0.012863 0.000007 0.000011 -0.000001 -0.000645 0.015499 -0.000431 -0.000112 0.033345 0.000381 0.000284 0.071440 0.000418 0.017107 0.003471 -0.011996 -0.000001 -0.000016 -0.000004 -0.000011 0.017527 0.000233 -0.000669 0.031911 0.000156 0.000752 0.091900 -0.004031 0.014367 0.020048 -0.015015 -0.000001 -0.000004 -0.000001 0.000246 0.017964 -0.000009 0.001926 0.039140 -0.002044 0.005971 0.104262 -0.005371 0.000000 -0.000000 -0.000000 -0.000016 0.000676 0.000310 0.000000 0.000000 0.000000 -0.000011 0.001366 -0.000069 -0.031960 -0.002455 0.159580 -0.000000 0.000015 -0.000009 -0.106613 -0.013378 -0.022582 73.890995 -29.459511 51.245468 -46.666260 -1.595002 74.896405 11.261642 9.039029 11.844193 -0.008269 -0.017364 -0.009130 0.001368 -0.000750 0.000195 -0.000073 -0.000411 0.000095 18.220692 0.825266 299.845168 -0.015791 -0.019369 -0.010870 -0.000003 0.000013 -0.000001 -0.000145 -0.013010 0.000292 19.592087 -341.344906 -19.691714 1.359230 6.082372 0.666010 -0.016274 -0.006169 -0.012862 0.000003 0.000007 -0.000004 -0.000567 -0.013603 0.000377 -0.001183 -0.011791 0.000788 0.000545 -0.020172 -0.000671 -0.017107 0.003471 -0.011996 -0.000002 0.000008 -0.000002 -0.000711 -0.016758 0.000435 -0.000651 -0.015889 0.000169 -0.000132 -0.042074 0.002315 -0.014367 0.020048 -0.015014 0.000004 0.000004 -0.000004 -0.000985 -0.017899 0.001030 0.000530 -0.022082 0.001598 0.000321 -0.056885 0.006357 -0.000000 -0.000000 -0.000000 0.000001 -0.000001 0.000005 0.000001 -0.000000 0.000000 -0.000003 -0.000075 -0.000001 0.000000 -0.002726 0.194733 -19.202075 24.315876 -16.134006 -10.802329 -6.011573 -7.676659 0.075423 -0.033073 0.045625 0.000422 0.000107 -0.000168 -0.075424 -0.033073 0.045626 0.000452 -0.000111 0.000181 
